<svg width="240" height="161" viewBox="0 0 240 161" fill="none" xmlns="http://www.w3.org/2000/svg">
<g clip-path="url(#clip0_13_47)">
<path d="M22.4063 0.194244C12.8438 1.33922 4.53752 7.7334 1.38751 16.4175C0.0562507 20.099 0.168751 14.656 0.0750008 79.4434C0.0375006 119.429 0.0750008 138.365 0.206251 139.51C0.693753 143.685 2.38126 147.754 5.02502 151.136C6.26252 152.739 8.85003 155.17 10.4625 156.244C13.1625 158.058 16.7251 159.591 20.0438 160.331C21.6376 160.683 22.2376 160.701 62.4377 160.842C84.8628 160.93 129.038 160.982 160.594 160.947L217.969 160.894L219.563 160.524C222.132 159.926 223.445 159.468 225.845 158.358C233.513 154.8 238.67 147.895 239.795 139.704C239.945 138.664 240.001 120.697 240.001 79.0206C239.982 30.1571 239.945 19.641 239.738 18.8484C238.951 15.801 237.695 13.0883 235.951 10.6222C234.62 8.73744 232.145 6.28899 230.082 4.82695C228.432 3.64676 224.457 1.70912 222.601 1.16307C222.038 0.986923 220.82 0.687469 219.882 0.476089L218.157 0.088562L120.938 0.0709534C65.419 0.0533295 23.1563 0.106171 22.4063 0.194244ZM169.501 55.9452C138.038 85.5029 123.169 99.3658 122.532 99.7181C121.238 100.423 119.719 100.44 118.463 99.7357C117.919 99.4362 100.688 83.3891 71.4565 55.9628L25.3126 12.6832H120.413H215.532L169.501 55.9452ZM227.063 79.3025L226.97 139.598L226.557 140.954C225.47 144.548 223.688 146.556 220.445 147.842L219.094 148.37L186.713 117.826L154.332 87.282L190.651 53.1444C210.619 34.3846 227.007 19.0245 227.063 19.0245C227.12 19.0245 227.12 46.1513 227.063 79.3025ZM50.2502 53.1092L85.969 86.6655L53.2127 117.439L20.4563 148.212L19.2938 147.701C16.9876 146.662 15.3938 144.653 14.6813 141.888C14.3813 140.743 14.3438 136.586 14.3063 80.0951C14.2688 46.8031 14.3063 19.5529 14.3813 19.5529C14.475 19.5529 30.6001 34.6489 50.2502 53.1092ZM106.594 105.954C115.05 113.968 118.219 116.857 118.763 117.069C119.7 117.421 121.257 117.421 122.175 117.051C122.7 116.857 126.057 113.81 134.063 106.306L145.219 95.8252L173.401 122.3C188.888 136.85 201.563 148.793 201.563 148.846C201.563 148.899 164.738 148.934 119.719 148.934C74.7002 148.934 37.8751 148.899 37.8751 148.846C37.8751 148.74 94.9316 95.1206 95.0628 95.1206C95.1191 95.1206 100.313 99.9823 106.594 105.954Z" fill="white"/>
</g>
<defs>
<clipPath id="clip0_13_47">
<rect width="240" height="161" fill="white"/>
</clipPath>
</defs>
</svg>
