<svg width="18" height="18" viewBox="0 0 18 18" fill="none" xmlns="http://www.w3.org/2000/svg">
<path d="M11.7692 0C8.34577 0 5.53846 2.80731 5.53846 6.23077C5.53846 6.59077 5.59731 6.90785 5.64646 7.22631L0.193846 12.6554L0 12.8728V18H4.84615V15.9231H6.92308V13.8462H9V11.79C9.81692 12.1915 10.7688 12.4615 11.7692 12.4615C15.1927 12.4615 18 9.65423 18 6.23077C18 2.80731 15.1927 0 11.7692 0ZM11.7692 1.38462C14.4381 1.38462 16.6154 3.56192 16.6154 6.23077C16.6154 8.89962 14.4381 11.0769 11.7692 11.0769C10.9315 11.0769 10.0696 10.8305 9.41123 10.4712L9.23815 10.3846H7.61539V12.4615H5.53846V14.5385H3.46154V16.6154H1.38462V13.4564L6.858 7.96154L7.11762 7.72338L7.05392 7.35646C6.98469 6.94108 6.92377 6.56931 6.92377 6.23077C6.92377 3.56192 9.10108 1.38462 11.7699 1.38462H11.7692ZM13.1538 3.46154C12.3888 3.46154 11.7692 4.08115 11.7692 4.84615C11.7692 5.61115 12.3888 6.23077 13.1538 6.23077C13.9188 6.23077 14.5385 5.61115 14.5385 4.84615C14.5385 4.08115 13.9188 3.46154 13.1538 3.46154Z" fill="#999999"/>
</svg>
